<svg width="18" height="18" viewBox="0 0 18 18" fill="none" xmlns="http://www.w3.org/2000/svg">
<path d="M3 14.625V3.375C3 2.87772 3.19754 2.40081 3.54917 2.04917C3.90081 1.69754 4.37772 1.5 4.875 1.5H14.25C14.4489 1.5 14.6397 1.57902 14.7803 1.71967C14.921 1.86032 15 2.05109 15 2.25V15.75C15 15.9489 14.921 16.1397 14.7803 16.2803C14.6397 16.421 14.4489 16.5 14.25 16.5H4.875C4.37772 16.5 3.90081 16.3025 3.54917 15.9508C3.19754 15.5992 3 15.1223 3 14.625ZM3 14.625C3 14.1277 3.19754 13.6508 3.54917 13.2992C3.90081 12.9475 4.37772 12.75 4.875 12.75H15" stroke="#FFAFF3" stroke-width="1.66667" stroke-linecap="round" stroke-linejoin="round"/>
<path d="M6 8.25H12" stroke="#FFAFF3" stroke-width="1.66667" stroke-linecap="round" stroke-linejoin="round"/>
<path d="M6 5.25H10.5" stroke="#FFAFF3" stroke-width="1.66667" stroke-linecap="round" stroke-linejoin="round"/>
</svg>
