<svg width="18" height="18" viewBox="0 0 18 18" fill="none" xmlns="http://www.w3.org/2000/svg">
<path d="M15.75 12V6C15.7497 5.73696 15.6803 5.47861 15.5487 5.25087C15.417 5.02314 15.2278 4.83402 15 4.7025L9.75 1.7025C9.52197 1.57085 9.2633 1.50154 9 1.50154C8.7367 1.50154 8.47803 1.57085 8.25 1.7025L3 4.7025C2.7722 4.83402 2.58299 5.02314 2.45135 5.25087C2.31971 5.47861 2.25027 5.73696 2.25 6V12C2.25027 12.263 2.31971 12.5214 2.45135 12.7491C2.58299 12.9769 2.7722 13.166 3 13.2975L8.25 16.2975C8.47803 16.4292 8.7367 16.4985 9 16.4985C9.2633 16.4985 9.52197 16.4292 9.75 16.2975L15 13.2975C15.2278 13.166 15.417 12.9769 15.5487 12.7491C15.6803 12.5214 15.7497 12.263 15.75 12Z" stroke="#FFAFF3" stroke-width="1.66667" stroke-linecap="round" stroke-linejoin="round"/>
</svg>
