<svg width="18" height="18" xmlns="http://www.w3.org/2000/svg" fill="none">

 <g>
  <title>Layer 1</title>
  <path transform="rotate(90 9 9.00002)" id="svg_1" stroke-linejoin="round" stroke-linecap="round" stroke-width="1.66667" stroke="#FFAFF3" d="m15.75,12l0,-6c-0.0003,-0.26304 -0.0697,-0.52139 -0.2013,-0.74913c-0.1317,-0.22773 -0.3209,-0.41685 -0.5487,-0.54837l-5.25,-3c-0.22803,-0.13165 -0.4867,-0.20096 -0.75,-0.20096c-0.2633,0 -0.52197,0.06931 -0.75,0.20096l-5.25,3c-0.2278,0.13152 -0.41701,0.32064 -0.54865,0.54837c-0.13164,0.22774 -0.20108,0.48609 -0.20135,0.74913l0,6c0.00027,0.263 0.06971,0.5214 0.20135,0.7491c0.13164,0.2278 0.32085,0.4169 0.54865,0.5484l5.25,3c0.22803,0.1317 0.4867,0.201 0.75,0.201c0.2633,0 0.52197,-0.0693 0.75,-0.201l5.25,-3c0.2278,-0.1315 0.417,-0.3206 0.5487,-0.5484c0.1316,-0.2277 0.201,-0.4861 0.2013,-0.7491z"/>
 </g>
</svg>