<svg width="24" height="24" viewBox="0 0 24 24" fill="none" xmlns="http://www.w3.org/2000/svg">
<path d="M3.72755 13.2155C9.34456 13.2155 13.898 8.66199 13.898 3.04498C13.898 2.37396 14.5005 1.82267 15.1306 2.05342C19.0246 3.47949 21.8035 7.21849 21.8035 11.6065C21.8035 17.2236 17.25 21.777 11.633 21.777C7.24502 21.777 3.50606 18.9982 2.07995 15.1043C1.71398 14.105 2.66339 13.2155 3.72755 13.2155Z" stroke="#151515" stroke-width="1.5" stroke-linecap="round" stroke-linejoin="round"/>
<path d="M9.48966 16.2474C10.1799 16.1277 10.6409 15.4809 10.5192 14.8026C10.3975 14.1242 9.73927 13.6714 9.049 13.791C8.35873 13.9106 7.8978 14.5575 8.01949 15.2358C8.14117 15.914 8.7994 16.3671 9.48966 16.2474Z" fill="#151515"/>
<path d="M15.715 15.4755C16.4052 15.3559 16.8662 14.709 16.7444 14.0307C16.6227 13.3524 15.9646 12.8995 15.2742 13.0192C14.584 13.1388 14.1231 13.7856 14.2447 14.4639C14.3665 15.1423 15.0247 15.5951 15.715 15.4755Z" fill="#151515"/>
<path d="M11.5512 16.9695C11.4721 16.9995 11.3997 17.0446 11.3382 17.102C11.2768 17.1595 11.2274 17.2284 11.1931 17.3046C11.1587 17.3809 11.14 17.463 11.1379 17.5463C11.1358 17.6296 11.1505 17.7127 11.181 17.7904C11.2608 17.9931 11.3803 18.1785 11.533 18.336C11.6856 18.4935 11.8683 18.6196 12.0707 18.7076L12.0708 18.7077C12.2729 18.7957 12.4906 18.8436 12.7117 18.8489H12.7119H12.7122C12.9332 18.8539 13.153 18.8163 13.3593 18.7381H13.3594C13.5657 18.6598 13.7544 18.5423 13.9144 18.3923H13.9146V18.3922C14.0747 18.2423 14.2031 18.0628 14.2925 17.8642C14.3823 17.6654 14.4311 17.4509 14.4363 17.2335C14.4403 17.0652 14.3762 16.9022 14.258 16.7803C14.1396 16.6585 13.9769 16.5879 13.8056 16.5839C13.7208 16.5819 13.6364 16.5965 13.5573 16.6265C13.4782 16.6566 13.4058 16.7017 13.3444 16.7593C13.283 16.8168 13.2338 16.8857 13.1995 16.962C13.1653 17.0382 13.1466 17.1204 13.1446 17.2038C13.1433 17.2541 13.132 17.3038 13.1112 17.3498V17.35L13.111 17.3503C13.0902 17.3965 13.0603 17.4382 13.0232 17.4731C12.9858 17.5081 12.9421 17.5354 12.8941 17.5535L12.8938 17.5536C12.8456 17.5719 12.7944 17.5806 12.7429 17.5795C12.6916 17.5782 12.6408 17.5669 12.5938 17.5465H12.5935L12.5934 17.5463C12.5463 17.5258 12.504 17.4966 12.4685 17.4601V17.46C12.433 17.4233 12.4052 17.3803 12.3866 17.333C12.3561 17.2552 12.3102 17.1841 12.2517 17.1238C12.1931 17.0635 12.1232 17.0149 12.0455 16.9812C11.9679 16.9474 11.8843 16.929 11.7995 16.9269C11.7147 16.9249 11.6304 16.9393 11.5512 16.9695Z" fill="#151515"/>
</svg>
