<svg width="24" height="24" viewBox="0 0 24 24" fill="none" xmlns="http://www.w3.org/2000/svg">
<g clip-path="url(#clip0_130_44)">
<path d="M12.6282 3.61874C12.9243 3.24173 13.5211 3.34696 13.6703 3.80248L14.7089 6.97221C14.7979 7.24411 15.0666 7.41527 15.3507 7.3811L18.6623 6.98276C19.1383 6.92551 19.4858 7.4219 19.2693 7.84954L17.7623 10.8252C17.633 11.0805 17.702 11.3915 17.927 11.5682L20.5504 13.6282C20.9274 13.9243 20.8222 14.5211 20.3666 14.6703L17.1969 15.7089C16.925 15.7979 16.7538 16.0666 16.788 16.3507L17.1864 19.6623C17.2436 20.1383 16.7472 20.4858 16.3196 20.2693L13.3439 18.7623C13.0886 18.633 12.7776 18.702 12.6009 18.927L10.5409 21.5504C10.2448 21.9274 9.64806 21.8222 9.49881 21.3666L8.46026 18.1969C8.37117 17.925 8.1025 17.7539 7.81843 17.788L4.50677 18.1864C4.03085 18.2436 3.68327 17.7472 3.89984 17.3196L5.40681 14.3439C5.53608 14.0886 5.46713 13.7776 5.2421 13.6009L2.61873 11.5409C2.24173 11.2448 2.34696 10.6481 2.80248 10.4988L5.97221 9.46026C6.2441 9.37117 6.41527 9.1025 6.3811 8.81843L5.98276 5.50677C5.92551 5.03085 6.4219 4.68328 6.84954 4.89984L9.82524 6.40682C10.0805 6.53608 10.3915 6.46713 10.5682 6.2421L12.6282 3.61874Z" stroke="#151515" stroke-width="1.5"/>
<path d="M8.48966 13.2474C9.17993 13.1277 9.64086 12.4809 9.51917 11.8026C9.39748 11.1242 8.73927 10.6714 8.049 10.791C7.35873 10.9106 6.8978 11.5575 7.01949 12.2358C7.14117 12.914 7.7994 13.3671 8.48966 13.2474Z" fill="#151515"/>
<path d="M14.715 12.4755C15.4052 12.3559 15.8662 11.709 15.7444 11.0307C15.6227 10.3524 14.9646 9.89953 14.2742 10.0192C13.584 10.1388 13.1231 10.7856 13.2447 11.4639C13.3665 12.1423 14.0247 12.5951 14.715 12.4755Z" fill="#151515"/>
<path d="M10.5512 13.9695C10.4721 13.9995 10.3997 14.0446 10.3382 14.102C10.2768 14.1595 10.2274 14.2284 10.1931 14.3046C10.1587 14.3809 10.14 14.463 10.1379 14.5463C10.1358 14.6296 10.1505 14.7127 10.181 14.7904C10.2608 14.9931 10.3803 15.1785 10.533 15.336C10.6856 15.4935 10.8683 15.6196 11.0707 15.7076L11.0708 15.7077C11.2729 15.7957 11.4906 15.8436 11.7117 15.8489H11.7119H11.7122C11.9332 15.8539 12.153 15.8163 12.3593 15.7381H12.3594C12.5657 15.6598 12.7544 15.5423 12.9144 15.3923H12.9146V15.3922C13.0747 15.2423 13.2031 15.0628 13.2925 14.8642C13.3823 14.6654 13.4311 14.4509 13.4363 14.2335C13.4403 14.0652 13.3762 13.9022 13.258 13.7803C13.1396 13.6585 12.9769 13.5879 12.8056 13.5839C12.7208 13.5819 12.6364 13.5965 12.5573 13.6265C12.4782 13.6566 12.4058 13.7017 12.3444 13.7593C12.283 13.8168 12.2338 13.8857 12.1995 13.962C12.1653 14.0382 12.1466 14.1204 12.1446 14.2038C12.1433 14.2541 12.132 14.3038 12.1112 14.3498V14.35L12.111 14.3503C12.0902 14.3965 12.0603 14.4382 12.0232 14.4731C11.9858 14.5081 11.9421 14.5354 11.8941 14.5535L11.8938 14.5536C11.8456 14.5719 11.7944 14.5806 11.7429 14.5795C11.6916 14.5782 11.6408 14.5669 11.5938 14.5465H11.5935L11.5934 14.5463C11.5463 14.5258 11.504 14.4966 11.4685 14.4601V14.46C11.433 14.4233 11.4052 14.3803 11.3866 14.333C11.3561 14.2552 11.3102 14.1841 11.2517 14.1238C11.1931 14.0635 11.1232 14.0149 11.0455 13.9812C10.9679 13.9474 10.8843 13.929 10.7995 13.9269C10.7147 13.9249 10.6304 13.9393 10.5512 13.9695Z" fill="#151515"/>
</g>
<defs>
<clipPath id="clip0_130_44">
<rect width="24" height="24" fill="white"/>
</clipPath>
</defs>
</svg>
