<svg width="47" height="51" viewBox="0 0 47 51" fill="none" xmlns="http://www.w3.org/2000/svg">
<g clip-path="url(#clip0_8_219)">
<path d="M7.83333 22.5779L29.7275 34.8709C30.2131 35.1497 30.7634 35.2964 31.3235 35.2964C31.8836 35.2964 32.4339 35.1497 32.9196 34.8709L41.125 30.254C41.7075 29.9249 42.1921 29.4472 42.5293 28.8698C42.8665 28.2923 43.0441 27.6358 43.0441 26.9673C43.0441 26.2988 42.8665 25.6423 42.5293 25.0648C42.1921 24.4874 41.7075 24.0158 41.125 23.6868L39.1384 22.5681M39.1384 22.5681L23.5 13.7619L5.87498 23.6806C5.29247 24.0097 4.80786 24.4874 4.47067 25.0648C4.13348 25.6423 3.95581 26.2988 3.95581 26.9673C3.95581 27.6358 4.13348 28.2923 4.47067 28.8698C4.80786 29.4472 5.29247 29.9249 5.87498 30.254L14.0608 34.871C14.55 35.1497 15.1035 35.2963 15.6666 35.2963C16.2298 35.2963 16.7833 35.1497 17.2725 34.871L39.1384 22.5681Z" stroke="#151515" stroke-width="1.5" stroke-linecap="round" stroke-linejoin="round"/>
<mask id="mask0_8_219" style="mask-type:alpha" maskUnits="userSpaceOnUse" x="3" y="-3" width="42" height="35">
<path d="M23.5 31.5L3.5 20.5L6.88794 4.04764L18.6379 -2.83331L44.569 0.404782L43 20.5L23.5 31.5Z" fill="#D9D9D9"/>
</mask>
<g mask="url(#mask0_8_219)">
<path d="M19.2591 4.09182C19.7456 2.68555 21.5545 2.36025 22.4833 3.51196L27.3515 9.54852C27.9539 10.2955 28.8453 10.7381 29.7936 10.7616L37.4616 10.9519C38.9256 10.9882 39.7853 12.6392 38.9976 13.8942L34.8646 20.4786C34.6119 20.8811 34.4471 21.3344 34.3818 21.8078C34.3164 22.2809 34.3519 22.7631 34.4858 23.221L36.6744 30.7093C37.0915 32.136 35.8176 33.4834 34.3997 33.1076L26.977 31.1406C26.5233 31.0203 26.0495 31.001 25.5878 31.0841C25.1264 31.1669 24.6875 31.3503 24.3016 31.6217L17.9863 36.0594C16.7799 36.907 15.131 36.0854 15.0443 34.5992L14.59 26.799C14.5338 25.8336 14.0681 24.9414 13.3144 24.3543L7.22244 19.6086C6.06132 18.7041 6.31567 16.8527 7.67913 16.3079L14.821 13.4542C15.7041 13.1014 16.3933 12.3745 16.7088 11.4625L19.2591 4.09182Z" fill="#FFAFF3"/>
<path d="M20.5909 2.16971C19.7258 2.32532 18.935 2.91116 18.6076 3.85732L16.057 11.2279C15.8083 11.9465 15.2659 12.5186 14.5697 12.7968L7.42756 15.6507C5.59486 16.383 5.24046 18.9539 6.80283 20.171L12.8948 24.9161C13.1881 25.1444 13.4297 25.4345 13.603 25.7668C13.7764 26.099 13.8774 26.4654 13.8992 26.8411L14.3533 34.641C14.4697 36.6421 16.7583 37.7805 18.3801 36.6413L24.6959 32.2034C24.9999 31.9896 25.3457 31.8449 25.7093 31.7795C26.0731 31.7141 26.4464 31.7293 26.8038 31.8242L34.2266 33.7908C36.1325 34.296 37.9014 32.4278 37.3398 30.5065L35.1513 23.0186C35.0458 22.658 35.0179 22.2784 35.0694 21.9056C35.1208 21.533 35.2506 21.1761 35.4498 20.8593L39.5832 14.2746C40.6433 12.5859 39.4482 10.2937 37.4805 10.2449L29.8121 10.0549C29.0646 10.0364 28.363 9.68799 27.8885 9.09953L23.0204 3.06316C22.3955 2.28833 21.4562 2.01409 20.5909 2.16971ZM20.8236 3.51649C21.2167 3.44577 21.6461 3.58429 21.95 3.96112L26.8181 9.99733C27.5481 10.9027 28.6296 11.4394 29.7783 11.4679L37.4467 11.6579C38.4069 11.6817 38.9314 12.6913 38.4157 13.5126L34.2826 20.0971C33.6626 21.0843 33.4949 22.2991 33.823 23.4223L36.0116 30.9102C36.2841 31.8428 35.5049 32.6691 34.575 32.4228L27.1521 30.456C26.0398 30.1611 24.8556 30.3742 23.9092 31.0394L17.5936 35.4771C16.8022 36.0331 15.793 35.5283 15.7364 34.5571L15.2824 26.7572C15.2143 25.587 14.6491 24.5043 13.7357 23.7926L7.64376 19.0475C6.88392 18.4556 7.03841 17.3239 7.93269 16.9665L15.0748 14.1126C16.1448 13.685 16.981 12.8034 17.3636 11.6979L19.9142 4.32729C20.0734 3.86719 20.4304 3.5872 20.8236 3.51649Z" fill="#151515"/>
<path d="M18.3687 22.0233C19.1091 21.8901 19.6034 21.1701 19.4729 20.4152C19.3424 19.66 18.6364 19.156 17.8961 19.2891C17.1558 19.4223 16.6614 20.1424 16.7919 20.8973C16.9225 21.6523 17.6284 22.1565 18.3687 22.0233Z" fill="#151515"/>
<path d="M29.3356 20.051C30.0758 19.918 30.5702 19.1979 30.4396 18.4429C30.3091 17.6879 29.6032 17.1838 28.8628 17.3169C28.1226 17.4501 27.6282 18.1701 27.7586 18.9251C27.8892 19.6802 28.5952 20.1842 29.3356 20.051Z" fill="#151515"/>
<path d="M22.7248 21.7139C22.6399 21.7473 22.5623 21.7975 22.4963 21.8615C22.4305 21.9254 22.3775 22.0021 22.3408 22.0869C22.3039 22.1719 22.2838 22.2632 22.2815 22.356C22.2793 22.4488 22.295 22.5412 22.3278 22.6277C22.4133 22.8534 22.5415 23.0597 22.7052 23.235C22.869 23.4103 23.0649 23.5507 23.2819 23.6486C23.4987 23.7465 23.7323 23.8 23.9695 23.8059C24.2065 23.8115 24.4428 23.7696 24.664 23.6825C24.8852 23.5954 25.0877 23.4647 25.2594 23.2977C25.4311 23.1309 25.569 22.9309 25.6649 22.7099C25.7612 22.4885 25.8136 22.2498 25.8191 22.0078C25.8234 21.8205 25.7547 21.639 25.6279 21.5033C25.5009 21.3678 25.3264 21.2892 25.1426 21.2848C25.0517 21.2825 24.9613 21.2987 24.8764 21.3321C24.7915 21.3657 24.7139 21.4159 24.6481 21.48C24.5822 21.544 24.5294 21.6207 24.4927 21.7056C24.4559 21.7904 24.4358 21.882 24.4338 21.9747C24.4324 22.0307 24.4203 22.086 24.3979 22.1373C24.3756 22.1887 24.3433 22.2357 24.3035 22.2746C24.2635 22.3134 24.2165 22.3438 24.1651 22.364C24.1135 22.3843 24.0582 22.3942 24.0029 22.3929C23.9478 22.3915 23.8934 22.379 23.843 22.3562C23.7926 22.3334 23.7467 22.3007 23.7086 22.2601C23.6705 22.2193 23.6407 22.1712 23.6208 22.1185C23.588 22.032 23.5388 21.9528 23.4761 21.8857C23.4132 21.8185 23.3382 21.7645 23.2549 21.727C23.1718 21.6894 23.082 21.6689 22.9911 21.6666C22.9001 21.6643 22.8097 21.6804 22.7248 21.7139Z" fill="#151515"/>
</g>
<path d="M23.5 48.9762V31.3691M5.87498 23.6806C5.29247 24.0097 4.80786 24.4874 4.47067 25.0648C4.13348 25.6423 3.95581 26.2988 3.95581 26.9673C3.95581 27.6358 4.13348 28.2924 4.47067 28.8698C4.80786 29.4473 5.29247 29.9249 5.87498 30.254L14.0608 34.871C14.55 35.1497 15.1035 35.2963 15.6666 35.2963C16.2298 35.2963 16.7833 35.1497 17.2725 34.871L39.1384 22.5681L41.125 23.6868C41.7075 24.0159 42.1921 24.4874 42.5293 25.0648C42.8665 25.6423 43.0441 26.2988 43.0441 26.9673C43.0441 27.6358 42.8665 28.2924 42.5293 28.8698C42.1921 29.4473 41.7075 29.9249 41.125 30.254L32.9196 34.871C32.4339 35.1497 31.8836 35.2964 31.3235 35.2964C30.7634 35.2964 30.2131 35.1497 29.7275 34.871L7.83333 22.5779M39.1666 31.3691V38.9402C39.1674 39.6786 38.9651 40.403 38.5817 41.0344C38.1984 41.6658 37.6488 42.1798 36.9929 42.5203L25.2429 48.5458C24.7045 48.8254 24.1067 48.9713 23.5 48.9713C22.8932 48.9713 22.2954 48.8254 21.7571 48.5458L10.0071 42.5203C9.35118 42.1798 8.80157 41.6658 8.41822 41.0344C8.03488 40.403 7.83255 39.6786 7.83331 38.9402V31.3691" stroke="#151515" stroke-width="1.5" stroke-linecap="round" stroke-linejoin="round"/>
</g>
<defs>
<clipPath id="clip0_8_219">
<rect width="47" height="51" fill="white"/>
</clipPath>
</defs>
</svg>
